HIERARCHY
ROOT Hips
{
	OFFSET -1.602300 6.242603 43.997101
	CHANNELS 6 Xposition Yposition Zposition Zrotation Xrotation Yrotation
	JOINT Chest
	{
		OFFSET -0.204900 1.598101 7.917301
		CHANNELS 6 Xposition Yposition Zposition Zrotation Xrotation Yrotation
		JOINT Chest2
		{
			OFFSET 0.000000 0.000000 3.404099
			CHANNELS 6 Xposition Yposition Zposition Zrotation Xrotation Yrotation
			JOINT Neck
			{
				OFFSET 0.000000 0.000000 7.928600
				CHANNELS 6 Xposition Yposition Zposition Zrotation Xrotation Yrotation
				JOINT Head
				{
					OFFSET 0.000000 0.000000 2.173897
					CHANNELS 6 Xposition Yposition Zposition Zrotation Xrotation Yrotation
					End Site
					{
						OFFSET 0.000000 0.000001 10.404503
					}
				}
			}
			JOINT LeftCollar
			{
				OFFSET 2.833800 -1.396299 4.843300
				CHANNELS 6 Xposition Yposition Zposition Zrotation Xrotation Yrotation
				JOINT LeftShoulder
				{
					OFFSET 4.363600 0.000000 0.000000
					CHANNELS 6 Xposition Yposition Zposition Zrotation Xrotation Yrotation
					JOINT LeftElbow
					{
						OFFSET 0.000000 -0.000001 -10.306900
						CHANNELS 6 Xposition Yposition Zposition Zrotation Xrotation Yrotation
						JOINT LeftWrist
						{
							OFFSET 0.000000 -0.000001 -12.404900
							CHANNELS 6 Xposition Yposition Zposition Zrotation Xrotation Yrotation
							End Site
							{
								OFFSET 0.000000 0.000000 -2.173901
							}
						}
					}
				}
			}
			JOINT RightCollar
			{
				OFFSET -2.354800 -1.897200 5.063099
				CHANNELS 6 Xposition Yposition Zposition Zrotation Xrotation Yrotation
				JOINT RightShoulder
				{
					OFFSET -4.375800 0.000000 0.000000
					CHANNELS 6 Xposition Yposition Zposition Zrotation Xrotation Yrotation
					JOINT RightElbow
					{
						OFFSET 0.000000 -0.000001 -10.005001
						CHANNELS 6 Xposition Yposition Zposition Zrotation Xrotation Yrotation
						JOINT RightWrist
						{
							OFFSET 0.000000 -0.000001 -13.174900
							CHANNELS 6 Xposition Yposition Zposition Zrotation Xrotation Yrotation
							End Site
							{
								OFFSET 0.000000 0.000000 -2.173901
							}
						}
					}
				}
			}
		}
	}
	JOINT LeftHip
	{
		OFFSET 2.240600 0.386800 -2.614101
		CHANNELS 6 Xposition Yposition Zposition Zrotation Xrotation Yrotation
		JOINT LeftKnee
		{
			OFFSET 0.000000 -0.000001 -18.592899
			CHANNELS 6 Xposition Yposition Zposition Zrotation Xrotation Yrotation
			JOINT LeftAnkle
			{
				OFFSET 0.000000 -0.000001 -18.765800
				CHANNELS 6 Xposition Yposition Zposition Zrotation Xrotation Yrotation
				End Site
				{
					OFFSET 0.000000 -8.655000 0.000000
				}
			}
		}
	}
	JOINT RightHip
	{
		OFFSET -2.014900 -0.220900 -2.615898
		CHANNELS 6 Xposition Yposition Zposition Zrotation Xrotation Yrotation
		JOINT RightKnee
		{
			OFFSET 0.000000 -0.000001 -18.633900
			CHANNELS 6 Xposition Yposition Zposition Zrotation Xrotation Yrotation
			JOINT RightAnkle
			{
				OFFSET 0.000000 -0.000001 -18.285101
				CHANNELS 6 Xposition Yposition Zposition Zrotation Xrotation Yrotation
				End Site
				{
					OFFSET 0.000000 -7.524500 0.000000
				}
			}
		}
	}
}
MOTION
Frames: 8
Frame Time: 0.041667
-3.664500 24.619604 7.172703 -10.807964 1.133821 6.464920 -0.204900 1.598100 7.917306 15.086655 34.845641 -6.886533 0.000000 0.000004 3.404099 -11.430817 -15.085967 -2.578131 0.000000 0.000003 7.928596 11.707471 11.158364 -9.048893 0.000000 -0.000000 2.173896 0.406190 -4.906109 0.869583 2.833800 -1.396297 4.843300 12.628913 7.629096 6.954419 4.363590 -0.000000 0.000002 -5.990217 36.519847 -66.045368 -0.000000 -0.000001 -10.306898 575.430433 -171.908061 545.385906 0.000002 0.000001 -12.404899 -7.899399 352.860359 -328.819623 -2.354800 -1.897197 5.063104 17.497606 17.986431 -5.231612 -4.375789 -0.000002 0.000000 -10.222863 34.582614 74.004342 -0.000000 0.000002 -10.004987 -593.264111 -175.443258 -551.831528 -0.000004 -0.000001 -13.174897 -330.496434 -31.243782 -34.136445 2.240597 0.386801 -2.614102 141.797773 -39.574581 108.002325 0.000001 0.000002 -18.592896 -102.425510 25.929524 134.991777 -0.000001 0.000000 -18.765800 10.513691 38.844782 -8.401913 -2.014895 -0.220897 -2.615898 -118.964246 -6.392079 -99.942381 0.000000 0.000003 -18.633884 155.813813 12.794619 -170.263721 -0.000005 -0.000005 -18.285082 -28.134371 32.917964 -194.100480
-3.656499 24.628603 7.167206 -10.855434 1.027489 6.505118 -0.204901 1.598101 7.917305 15.221729 35.048682 -7.073059 0.000000 -0.000001 3.404103 -11.497644 -14.923811 -2.569488 -0.000001 -0.000001 7.928601 11.092363 12.111213 -8.826088 0.000000 -0.000001 2.173899 0.410350 -4.745046 0.700367 2.833799 -1.396299 4.843309 12.031846 7.920042 6.420868 4.363593 -0.000001 -0.000001 -5.730638 36.114137 -64.224412 0.000000 0.000003 -10.306892 574.736267 -170.325985 546.297381 0.000008 -0.000002 -12.404897 -7.085952 353.329210 -327.225894 -2.354802 -1.897202 5.063107 17.556764 17.907525 -4.927369 -4.375789 -0.000006 -0.000005 -10.306379 33.846087 73.936552 0.000000 0.000002 -10.004993 -597.375557 -176.645644 -554.944237 -0.000005 -0.000003 -13.174895 -325.232189 -31.998200 -34.539300 2.240596 0.386804 -2.614103 141.836036 -39.574481 107.963140 -0.000001 0.000001 -18.592894 -102.454046 25.851171 135.001189 -0.000001 0.000001 -18.765800 10.617116 38.840243 -8.402342 -2.014896 -0.220896 -2.615903 -118.900001 -6.435415 -99.816521 -0.000000 0.000003 -18.633883 155.749828 12.785875 -170.250825 -0.000005 -0.000006 -18.285082 -28.163737 32.914965 -194.073528
-3.648000 24.638403 7.161713 -10.877726 0.913136 6.547265 -0.204901 1.598095 7.917310 15.337084 35.263232 -7.263889 0.000000 -0.000001 3.404106 -11.544778 -14.788406 -2.559909 -0.000000 -0.000005 7.928599 10.423782 13.092736 -8.532670 0.000000 0.000003 2.173901 0.255687 -4.561075 0.477484 2.833801 -1.396304 4.843300 11.468717 8.232389 5.973921 4.363589 -0.000001 -0.000001 -5.370672 35.538413 -62.705446 -0.000001 0.000003 -10.306900 575.163127 -168.979973 547.374639 0.000007 0.000002 -12.404897 -6.562542 352.921393 -324.551110 -2.354801 -1.897205 5.063106 17.590739 17.783431 -4.782410 -4.375790 -0.000001 0.000002 -10.623359 32.903036 74.178935 -0.000001 0.000006 -10.004988 -601.483233 -178.427873 -558.138907 -0.000007 -0.000005 -13.174902 -319.732876 -32.915474 -34.827179 2.240597 0.386801 -2.614105 141.851691 -39.580724 107.919817 0.000000 -0.000001 -18.592896 -102.499508 25.781176 135.030982 -0.000001 0.000001 -18.765799 10.712984 38.835062 -8.414774 -2.014900 -0.220895 -2.615900 -118.859867 -6.477483 -99.683811 -0.000001 0.000003 -18.633884 155.690665 12.777689 -170.236400 -0.000005 -0.000007 -18.285084 -28.189251 32.914456 -194.050688
-3.637498 24.648905 7.153908 -10.850490 0.771745 6.561833 -0.204901 1.598097 7.917315 15.395986 35.524087 -7.432266 0.000000 0.000002 3.404098 -11.579679 -14.660653 -2.548236 -0.000001 0.000001 7.928602 9.785892 14.045657 -8.241904 0.000000 -0.000000 2.173901 0.280605 -4.362307 0.375119 2.833801 -1.396295 4.843302 10.921829 8.585561 5.468866 4.363593 -0.000001 -0.000001 -4.892872 34.922224 -61.130480 -0.000002 0.000001 -10.306899 575.718503 -167.396353 548.485828 0.000005 0.000000 -12.404898 -5.895011 352.540187 -321.888893 -2.354801 -1.897198 5.063098 17.575603 17.619516 -4.678051 -4.375791 -0.000002 -0.000005 -11.032186 31.684933 74.549459 -0.000001 0.000003 -10.004993 -607.040330 -181.491309 -561.219705 -0.000004 -0.000003 -13.174900 -313.092566 -33.981578 -35.610848 2.240598 0.386801 -2.614101 141.765371 -39.579498 107.812084 0.000001 0.000001 -18.592896 -102.519220 25.681515 135.019671 -0.000001 -0.000001 -18.765799 10.848308 38.829472 -8.409315 -2.014899 -0.220895 -2.615897 -118.874497 -6.511345 -99.545745 -0.000001 0.000003 -18.633884 155.670516 12.758833 -170.226838 -0.000004 -0.000006 -18.285084 -28.215566 32.918308 -194.028271
-3.625199 24.660706 7.144215 -10.797789 0.632969 6.539547 -0.204900 1.598103 7.917307 15.401284 35.787616 -7.539441 0.000000 0.000003 3.404097 -11.603793 -14.544753 -2.536569 0.000000 -0.000003 7.928601 9.168929 15.003400 -7.956830 0.000000 -0.000000 2.173897 0.255466 -4.131334 0.306358 2.833802 -1.396303 4.843306 10.128777 8.299736 5.075660 4.363591 -0.000003 0.000001 -4.049180 35.024674 -59.638814 -0.000000 0.000000 -10.306897 576.245739 -165.698859 549.675866 0.000007 0.000000 -12.404896 -5.398238 352.002760 -319.482699 -2.354801 -1.897201 5.063103 17.519029 17.407920 -4.666662 -4.375792 -0.000005 -0.000002 -11.459249 30.374073 74.931383 -0.000003 0.000005 -10.004986 -605.217871 -181.694507 -564.066747 -0.000008 -0.000003 -13.174901 -315.627905 -35.218320 -37.333899 2.240597 0.386804 -2.614105 141.614683 -39.534071 107.665112 -0.000000 0.000001 -18.592892 -102.556308 25.585446 134.993566 -0.000000 0.000001 -18.765799 10.983313 38.824629 -8.392703 -2.014895 -0.220895 -2.615897 -118.924617 -6.538279 -99.431640 0.000000 0.000001 -18.633884 155.681226 12.730710 -170.221688 -0.000005 -0.000005 -18.285082 -28.245028 32.924602 -194.003614
-3.611099 24.674000 7.132309 -10.742094 0.502467 6.475821 -0.204900 1.598097 7.917310 15.368329 36.048389 -7.571791 0.000000 0.000003 3.404096 -11.620653 -14.440821 -2.525527 0.000001 -0.000001 7.928597 8.662384 15.924028 -7.785558 0.000000 -0.000002 2.173903 0.167647 -3.872606 0.332789 2.833801 -1.396299 4.843307 9.848960 8.382304 4.810072 4.363591 -0.000001 -0.000006 -3.531538 34.887612 -58.521676 0.000001 0.000009 -10.306894 577.065526 -163.930974 551.037642 0.000009 -0.000000 -12.404902 -4.427972 351.230921 -316.876736 -2.354800 -1.897200 5.063105 17.426869 17.136482 -4.785668 -4.375790 -0.000001 0.000004 -11.684779 29.533748 74.598807 -0.000002 0.000004 -10.004991 -610.271720 -184.211131 -566.191427 -0.000010 -0.000002 -13.174895 -312.598033 -37.079202 -39.672785 2.240597 0.386799 -2.614102 141.424531 -39.425645 107.478996 0.000000 -0.000004 -18.592894 -102.611981 25.482454 134.953186 -0.000002 0.000000 -18.765800 11.127862 38.820289 -8.364516 -2.014896 -0.220896 -2.615899 -118.990816 -6.553078 -99.350866 -0.000000 -0.000000 -18.633886 155.722808 12.692038 -170.218833 -0.000005 -0.000004 -18.285082 -28.280981 32.934182 -193.974094
-3.596099 24.688608 7.119102 -10.667281 0.345503 6.387988 -0.204900 1.598102 7.917309 15.308107 36.340783 -7.591513 0.000000 -0.000004 3.404100 -11.612260 -14.351261 -2.512118 -0.000000 -0.000003 7.928598 8.141556 16.831968 -7.584805 -0.000001 0.000001 2.173894 0.120140 -3.534365 0.281187 2.833802 -1.396303 4.843302 9.713831 8.377192 4.569280 4.363595 -0.000008 0.000000 -3.173369 34.951673 -57.453605 -0.000003 0.000000 -10.306896 578.061312 -162.080867 552.518317 0.000006 -0.000002 -12.404895 -3.438603 350.642022 -314.153267 -2.354800 -1.897204 5.063099 17.256697 16.828806 -4.813686 -4.375790 -0.000005 0.000000 -11.465918 29.630672 72.597568 -0.000001 0.000009 -10.004996 -609.325165 -181.091264 -567.662814 -0.000009 -0.000002 -13.174904 -318.242884 -38.478824 -43.311821 2.240597 0.386806 -2.614102 141.176363 -39.327153 107.241032 -0.000001 -0.000003 -18.592892 -102.649274 25.372853 134.892616 -0.000001 0.000001 -18.765797 11.285618 38.815846 -8.329970 -2.014896 -0.220898 -2.615901 -119.077696 -6.558109 -99.262914 -0.000000 -0.000001 -18.633886 155.799689 12.645618 -170.218300 -0.000004 -0.000006 -18.285082 -28.320445 32.946705 -193.942047
-3.580500 24.703104 7.104805 -10.560223 0.153270 6.270628 -0.204900 1.598099 7.917311 15.211432 36.662359 -7.657296 0.000000 0.000004 3.404101 -11.574013 -14.269088 -2.437897 0.000000 -0.000001 7.928601 7.710332 17.702957 -7.452177 -0.000000 0.000002 2.173908 -0.004557 -3.202147 0.236576 2.833802 -1.396304 4.843300 9.629434 8.329007 4.325651 4.363595 -0.000004 0.000001 -2.861641 35.111872 -56.401339 -0.000002 0.000002 -10.306895 579.078191 -160.092148 554.117620 0.000007 0.000002 -12.404899 -1.903724 350.554787 -311.345622 -2.354801 -1.897201 5.063103 17.053307 16.540217 -4.682112 -4.375791 -0.000002 0.000001 -11.233965 29.907824 70.618671 0.000000 0.000009 -10.004995 -608.728370 -178.056079 -569.347193 -0.000007 -0.000001 -13.174900 -323.556197 -39.659077 -46.799606 2.240597 0.386802 -2.614101 140.847025 -39.221446 106.927561 0.000000 0.000002 -18.592892 -102.660940 25.223627 134.799343 0.000000 0.000002 -18.765797 11.486905 38.810419 -8.281617 -2.014900 -0.220900 -2.615900 -119.196391 -6.581916 -99.156684 0.000001 -0.000000 -18.633883 155.891896 12.591699 -170.218614 -0.000003 -0.000005 -18.285084 -28.366986 32.960290 -193.904016
